<?xml version="1.0" encoding="UTF-8" standalone="no"?>
<!-- Created with Inkscape (http://www.inkscape.org/) -->

<svg
   version="1.1"
   id="svg1"
   width="1356"
   height="1356"
   viewBox="0 0 1356 1356"
   xmlns="http://www.w3.org/2000/svg">
  <defs
     id="defs1" />
  <g
     id="layer2"
     style="display:inline">
    <g
       id="g7"
       transform="matrix(1.1657305,0,0,1.1657305,-76.711803,-107.67358)">
      <path
         style="display:inline;fill:#676767;fill-opacity:1;stroke-width:0.975118"
         d="m 321.78168,980.91504 c 49.67808,55.15186 150.90538,67.42966 221.83804,9.97752 103.69469,-79.81811 149.14088,-181.00576 332.71477,-375.11643 42.10061,-41.1566 94.00387,-7.98159 132.86731,-25.6055 30.6379,-13.89375 40.5627,-43.03382 38.0858,-79.97233 -9.6337,22.38166 -12.4558,20.73617 -31.1752,23.57893 -38.9497,-3.72101 -43.04093,-3.74853 -113.69509,-8.51301 -14.42201,-2.58943 -28.50901,-17.87902 -75.19076,35.82502 -122.74196,138.50454 521.70085,-588.877867 -368.22587,415.51361 -30.0555,33.87815 -66.61614,62.31295 -137.219,4.31219 z"
         id="background-back" />
      <path
         id="background-front"
         style="display:inline;fill:#000000;fill-opacity:1;stroke-width:0.975118"
         d="m 649.71222,343.99493 c 63.67962,-4.01252 379.85578,109.77146 388.50768,139.91195 25.1427,48.73167 -7.4135,49.77141 -22.7229,50.37312 -34.62282,-0.45716 -75.66768,-3.74879 -126.6009,-10.10711 z m -44.55143,33.02347 c 14.81219,-16.90612 23.99099,-29.82351 44.85343,-33.06921 l 239.20689,180.24459 c -14.34237,-0.72267 -30.64628,2.47771 -64.35597,40.48968 z M 443.89603,994.90857 c -24.08758,27.20193 -64.15964,26.98393 -103.8779,0.33385 -38.20903,-25.63738 -69.66529,-71.50684 -83.28679,-119.71939 -13.15765,-46.57074 -7.98079,-89.46838 13.25333,-113.8376 M 605.21199,376.96342 824.90327,564.63961 443.89603,994.90857 269.98467,761.68543 Z" />
      <path
         id="btn-yellow"
         d="m 373.89826,707.64008 122.81886,148.68436 c 8.32084,10.07319 8.08321,26.17603 -0.60522,36.00385 l -24.51295,27.72754 c -8.66405,9.80023 -22.14779,9.2554 -30.16321,-1.11789 L 323.1023,765.79496 c -6.77102,-8.76282 -5.89048,-22.9611 1.92142,-31.91463 l 22.09913,-25.32865 c 7.83184,-8.97637 19.74907,-9.41769 26.77541,-0.9116 z"
         style="fill:#ffff00;fill-opacity:1;stroke-width:1.13902" />
      <path
         id="btn-green"
         d="m 452.214,617.97858 129.77312,141.76625 c 8.79458,9.60734 8.8911,25.38962 0.13931,35.28911 l -24.69159,27.92962 c -8.72715,9.8716 -22.64334,9.75877 -31.1282,-0.15319 L 401.07949,676.52106 c -7.1634,-8.36822 -6.5544,-22.2989 1.30909,-31.31155 l 22.24516,-25.49602 c 7.88363,-9.03573 20.15824,-9.84285 27.58026,-1.73491 z"
         style="fill:#1cb522;fill-opacity:1;stroke-width:1.13902" />
      <path
         id="btn-orange"
         d="m 531.05317,527.71783 136.8214,134.74806 c 9.27499,9.13443 9.71054,24.59106 0.8947,34.563 l -24.87219,28.1339 c -8.79093,9.94375 -23.14552,10.26925 -32.10644,0.8256 L 479.57669,586.65181 c -7.56085,-7.96816 -7.22701,-21.62738 0.68858,-30.69974 L 502.6579,530.287 c 7.93593,-9.09567 20.57243,-10.27345 28.39527,-2.56917 z"
         style="fill:#ff8600;fill-opacity:1;stroke-width:1.13902" />
      <path
         id="btn-blue"
         d="m 610.42105,436.85187 143.9652,127.62816 c 9.76217,8.65437 10.54173,23.78014 1.66112,33.82534 l -25.05478,28.34043 c -8.85543,10.0167 -23.65444,10.78693 -33.09811,1.81866 L 558.59917,496.18127 c -7.96345,-7.56258 -7.90846,-20.94642 0.0597,-30.07908 l 22.5416,-25.83579 c 7.98875,-9.15621 20.99169,-10.70958 29.22054,-3.41453 z"
         style="fill:#158fee;fill-opacity:1;stroke-width:1.13902" />
      <path
         style="display:inline;fill:#f40c22;fill-opacity:1;stroke-width:0.975118"
         d="m 686.38698,348.02935 c 40.0822,-45.73219 134.90413,-34.22914 197.82536,-9.12563 139.79796,56.57264 158.12306,142.50726 152.32766,161.97972 -23.2584,32.05433 -151.4326,9.41302 -236.84392,-35.28402 -59.08057,-31.09053 -120.88642,-68.12853 -113.3091,-117.57007 z"
         id="btn-red" />
    </g>
    <path
       id="circle"
       style="display:inline;fill:#676767;fill-opacity:1;stroke-width:1.05119"
       d="M 678,1 A 677,677 0 0 0 1,678 677,677 0 0 0 678,1355 677,677 0 0 0 1355,678 677,677 0 0 0 678,1 Z m 0,67 A 610,610 0 0 1 1288,678 610,610 0 0 1 678,1288 610,610 0 0 1 68,678 610,610 0 0 1 678,68 Z" />
  </g>
</svg>
